<svg xmlns="http://www.w3.org/2000/svg" xmlns:xlink="http://www.w3.org/1999/xlink" width="256" zoomAndPan="magnify" viewBox="0 0 192 191.999996" height="256" preserveAspectRatio="xMidYMid meet" version="1.0"><rect x="-19.2" width="230.4" fill="#ffffff" y="-19.2" height="230.399995" fill-opacity="1"/><rect x="-19.2" width="230.4" fill="#000000" y="-19.2" height="230.399995" fill-opacity="1"/><path fill="#ffffff" d="M 153.414062 94.414062 L 160.542969 94.414062 L 160.542969 86.550781 L 163.84375 86.550781 L 163.84375 94.414062 L 170.972656 94.414062 L 170.972656 97.75 L 163.84375 97.75 L 163.84375 105.574219 L 160.542969 105.574219 L 160.542969 97.75 L 153.414062 97.75 Z M 153.414062 94.414062 " fill-opacity="1" fill-rule="nonzero"/><path fill="#ffffff" d="M 147.292969 86.117188 L 152.339844 86.117188 L 145.191406 107.144531 C 144.382812 109.472656 143.492188 110.796875 142.160156 111.519531 C 141.027344 112.121094 140.503906 112.199219 137.917969 112.199219 L 135.410156 112.199219 L 135.410156 108.390625 L 136.867188 108.390625 C 137.996094 108.390625 138.644531 108.269531 139.128906 107.90625 C 139.816406 107.464844 140.261719 106.542969 140.261719 105.578125 C 140.261719 104.859375 139.816406 103.09375 139.332031 101.769531 L 133.230469 86.117188 L 138.605469 86.117188 L 143.128906 100.523438 Z M 147.292969 86.117188 " fill-opacity="1" fill-rule="nonzero"/><path fill="#ffffff" d="M 120.179688 91.9375 L 115.574219 91.9375 C 115.816406 90.050781 116.21875 89.046875 116.988281 88.125 C 118.402344 86.480469 120.867188 85.597656 124.097656 85.597656 C 128.140625 85.597656 130.847656 86.800781 131.9375 89.085938 C 132.460938 90.089844 132.664062 91.375 132.664062 93.339844 L 132.664062 101.527344 C 132.664062 103.855469 132.746094 104.457031 133.3125 105.660156 L 128.542969 105.660156 L 127.976562 103.855469 C 125.878906 105.460938 123.9375 106.183594 121.675781 106.183594 C 117.675781 106.183594 114.402344 103.492188 114.402344 100.203125 C 114.402344 98.035156 115.695312 96.191406 118.078125 95.066406 C 119.535156 94.34375 121.554688 93.863281 124.585938 93.5 C 126.847656 93.261719 127.65625 92.738281 127.65625 91.535156 C 127.65625 90.050781 126.199219 89.007812 124.058594 89.007812 C 121.757812 89.007812 120.339844 90.050781 120.179688 91.9375 Z M 127.855469 98.078125 L 127.855469 95.386719 C 126.925781 95.988281 126.441406 96.148438 124.746094 96.550781 C 120.707031 97.515625 119.453125 98.316406 119.453125 99.921875 C 119.453125 101.328125 120.828125 102.289062 122.886719 102.289062 C 124.339844 102.289062 125.675781 101.886719 126.644531 101.125 C 127.535156 100.445312 127.855469 99.640625 127.855469 98.078125 Z M 127.855469 98.078125 " fill-opacity="1" fill-rule="nonzero"/><path fill="#ffffff" d="M 93.789062 86.117188 L 98.71875 86.117188 L 98.71875 88.6875 C 100.210938 86.480469 101.828125 85.597656 104.332031 85.597656 C 109.304688 85.597656 112.898438 89.96875 112.898438 95.988281 C 112.898438 101.96875 109.425781 106.183594 104.453125 106.183594 C 102.03125 106.183594 100.535156 105.339844 98.71875 102.972656 L 98.71875 112.199219 L 93.789062 112.199219 Z M 103.363281 89.488281 C 100.375 89.488281 98.476562 91.976562 98.476562 95.949219 C 98.476562 99.722656 100.414062 102.289062 103.242188 102.289062 C 105.988281 102.289062 107.847656 99.761719 107.847656 95.988281 C 107.847656 92.136719 106.03125 89.488281 103.363281 89.488281 Z M 103.363281 89.488281 " fill-opacity="1" fill-rule="nonzero"/><path fill="#ffffff" d="M 90.882812 104.015625 L 90.882812 105.660156 C 90.035156 105.941406 89.632812 106.019531 89.066406 106.019531 C 87.167969 106.019531 86.441406 105.257812 86.238281 103.011719 C 84.054688 105.378906 82.238281 106.183594 79.207031 106.183594 C 75.289062 106.183594 72.984375 104.136719 72.984375 100.683594 C 72.984375 99.078125 73.46875 97.714844 74.441406 96.753906 C 75.53125 95.628906 76.621094 95.1875 79.328125 94.785156 L 84.136719 94.0625 C 86.199219 93.78125 86.320312 93.664062 86.320312 91.695312 C 86.320312 89.046875 84.824219 87.925781 81.390625 87.925781 C 78.078125 87.925781 76.664062 89.128906 76.417969 92.136719 L 73.792969 92.136719 C 74.078125 88.085938 76.703125 85.878906 81.347656 85.878906 C 84.417969 85.878906 86.804688 86.800781 87.894531 88.40625 C 88.539062 89.367188 88.660156 90.132812 88.660156 92.660156 L 88.660156 102.289062 C 88.660156 103.734375 88.945312 104.175781 89.832031 104.175781 C 90.117188 104.175781 90.359375 104.136719 90.882812 104.015625 Z M 86.238281 95.707031 L 79.613281 96.710938 C 76.621094 97.195312 75.410156 98.277344 75.410156 100.5625 C 75.410156 102.8125 76.984375 104.136719 79.570312 104.136719 C 81.914062 104.136719 83.976562 103.210938 85.226562 101.566406 C 85.996094 100.605469 86.238281 99.480469 86.238281 97.234375 Z M 86.238281 95.707031 " fill-opacity="1" fill-rule="nonzero"/><path fill="#ffffff" d="M 63.699219 105.660156 L 63.699219 86.398438 L 66.125 86.398438 L 66.125 89.609375 C 67.621094 87 69.074219 86.078125 71.539062 86.078125 C 71.863281 86.078125 72.105469 86.117188 72.507812 86.199219 L 72.507812 88.527344 C 72.144531 88.488281 71.820312 88.445312 71.660156 88.445312 C 69.640625 88.445312 67.742188 89.851562 66.8125 92.019531 C 66.285156 93.222656 66.125 94.265625 66.125 96.632812 L 66.125 105.660156 Z M 63.699219 105.660156 " fill-opacity="1" fill-rule="nonzero"/><path fill="#ffffff" d="M 60.921875 103.652344 L 60.921875 105.21875 C 60.070312 105.621094 59.386719 105.78125 58.457031 105.78125 C 56.960938 105.78125 55.910156 105.140625 55.585938 103.976562 C 55.425781 103.492188 55.425781 103.292969 55.425781 101.40625 L 55.425781 88.40625 L 52.636719 88.40625 L 52.636719 86.398438 L 55.425781 86.398438 L 55.425781 80.699219 L 57.851562 80.699219 L 57.851562 86.398438 L 60.921875 86.398438 L 60.921875 88.40625 L 57.851562 88.40625 L 57.851562 101.96875 C 57.851562 102.972656 57.890625 103.171875 58.050781 103.453125 C 58.292969 103.816406 58.820312 104.054688 59.386719 104.054688 C 59.828125 104.054688 60.234375 103.933594 60.921875 103.652344 Z M 60.921875 103.652344 " fill-opacity="1" fill-rule="nonzero"/><path fill="#ffffff" d="M 52.726562 104.015625 L 52.726562 105.660156 C 51.875 105.941406 51.472656 106.019531 50.90625 106.019531 C 49.007812 106.019531 48.28125 105.257812 48.078125 103.011719 C 45.898438 105.378906 44.078125 106.183594 41.046875 106.183594 C 37.128906 106.183594 34.828125 104.136719 34.828125 100.683594 C 34.828125 99.078125 35.3125 97.714844 36.28125 96.753906 C 37.371094 95.628906 38.464844 95.1875 41.171875 94.785156 L 45.976562 94.0625 C 48.039062 93.78125 48.160156 93.664062 48.160156 91.695312 C 48.160156 89.046875 46.664062 87.925781 43.230469 87.925781 C 39.917969 87.925781 38.503906 89.128906 38.261719 92.136719 L 35.632812 92.136719 C 35.917969 88.085938 38.542969 85.878906 43.191406 85.878906 C 46.261719 85.878906 48.644531 86.800781 49.734375 88.40625 C 50.382812 89.367188 50.503906 90.132812 50.503906 92.660156 L 50.503906 102.289062 C 50.503906 103.734375 50.785156 104.175781 51.675781 104.175781 C 51.957031 104.175781 52.199219 104.136719 52.726562 104.015625 Z M 48.078125 95.707031 L 41.453125 96.710938 C 38.464844 97.195312 37.25 98.277344 37.25 100.5625 C 37.25 102.8125 38.828125 104.136719 41.414062 104.136719 C 43.753906 104.136719 45.816406 103.210938 47.070312 101.566406 C 47.835938 100.605469 48.078125 99.480469 48.078125 97.234375 Z M 48.078125 95.707031 " fill-opacity="1" fill-rule="nonzero"/><path fill="#ffffff" d="M 33.296875 103.652344 L 33.296875 105.21875 C 32.449219 105.621094 31.761719 105.78125 30.832031 105.78125 C 29.339844 105.78125 28.289062 105.140625 27.964844 103.976562 C 27.804688 103.492188 27.804688 103.292969 27.804688 101.40625 L 27.804688 88.40625 L 25.015625 88.40625 L 25.015625 86.398438 L 27.804688 86.398438 L 27.804688 80.699219 L 30.226562 80.699219 L 30.226562 86.398438 L 33.296875 86.398438 L 33.296875 88.40625 L 30.226562 88.40625 L 30.226562 101.96875 C 30.226562 102.972656 30.269531 103.171875 30.429688 103.453125 C 30.671875 103.816406 31.195312 104.054688 31.761719 104.054688 C 32.207031 104.054688 32.609375 103.933594 33.296875 103.652344 Z M 33.296875 103.652344 " fill-opacity="1" fill-rule="nonzero"/></svg>