<?xml version="1.0" encoding="utf-8"?>
<!-- Generator: Adobe Illustrator 24.3.0, SVG Export Plug-In . SVG Version: 6.00 Build 0)  -->
<svg version="1.1" id="Layer_2_1_" xmlns="http://www.w3.org/2000/svg" xmlns:xlink="http://www.w3.org/1999/xlink" x="0px" y="0px"
	 viewBox="0 0 512 512" style="enable-background:new 0 0 512 512;" xml:space="preserve">
<style type="text/css">
	.st0{fill:#000;}
</style>
<path class="st0" d="M451.8,245.3L342.6,117.5c-2.3-3.8-6.5-6.3-11.2-6.3c-7.2,0-13.1,5.9-13.1,13.1c0,3.8,1.6,7.3,4.2,9.7
	l98.9,120.1L323.6,372H313h-31.6l92.4-107.8c0.1-0.1,0.1-0.1,0.2-0.2l0,0c2.6-2.8,3.7-6.1,3.7-9.4c0.1-3.3-1.1-6.6-3.7-9.4l0,0
	c-0.1-0.1-0.1-0.1-0.2-0.2L263.5,117.7c0,0,0-0.1-0.1-0.1c-2.3-3.9-6.5-6.4-11.3-6.4h-77.5c-7.2,0-13.1,5.9-13.1,13.1
	c0,2.2,0.3,4.5,1.5,6.1l102.7,124.7l-87.5,105.3c-0.5,0.5-8.1,11.3-21.3,11.3H52.3c-14.2,0-26-11.1-26-25.9V163.3
	c0-12.9,11.8-26.1,26.3-26.1h65c7.7,0,13.1-5.2,13.1-12.9c0-7.7-5.4-13.4-13.1-13.4L52,111.2c-31.1,0-52,25.7-52,51.9v182.7
	c0,28.2,24.8,52.1,52,52.1h104.5c5.3,0,10.1-0.8,14.4-2c0.6-0.2,1.2-0.4,1.8-0.6c14.4-4.7,23.1-14.3,24.8-16.3L296,263.9
	c4.7-5.3,5.3-13,0.1-18.7l0,0c-0.1-0.1-0.1-0.1-0.2-0.2l-93.2-107.8h32.3h10.7l97.4,117.4L240.7,378.5c0,0,0,0.1,0.2,0.3
	c-1,1.8-1.5,3.9-1.5,6.1c0,7.3,5.9,13.1,13.1,13.1H330c4.8,0,9-2.6,11.3-6.4c0,0,0-0.1,0.1-0.1l110.3-127.3c0.1-0.1,0.1-0.1,0.2-0.2
	l0,0C457,258.3,456.4,250.6,451.8,245.3"/>
</svg>
