<svg width="293" height="44" viewBox="0 0 293 44" fill="none" xmlns="http://www.w3.org/2000/svg">
<g clip-path="url(#clip0_1016_5600)">
<rect width="292.598" height="44" rx="4" fill="#08080A"/>
<path d="M149.858 20.984H148.146C147.954 20.248 147.458 19.896 146.594 19.896C145.762 19.896 145.186 20.264 145.186 20.792C145.186 21.032 145.346 21.24 145.602 21.352C145.89 21.48 146.242 21.56 147.33 21.752C148.45 21.944 148.93 22.104 149.362 22.44C149.826 22.824 150.098 23.416 150.098 24.12C150.098 25.64 148.77 26.664 146.786 26.664C144.69 26.664 143.41 25.688 143.234 23.96H145.026C145.186 24.824 145.746 25.224 146.77 25.224C147.666 25.224 148.258 24.84 148.258 24.248C148.258 23.768 147.97 23.592 146.93 23.416C145.698 23.192 144.85 22.936 144.354 22.616C143.73 22.216 143.41 21.64 143.41 20.968C143.41 19.496 144.706 18.456 146.53 18.456C148.434 18.456 149.698 19.416 149.858 20.984Z" fill="white"/>
<path d="M135.937 18.664H137.409V19.896H135.937V23.848C135.937 24.44 135.969 24.616 136.097 24.776C136.225 24.952 136.497 25.048 136.817 25.048L137.361 25.032L137.521 25.016V26.456H136.129C135.409 26.456 135.265 26.44 134.993 26.328C134.465 26.12 134.177 25.752 134.065 25.176C134.001 24.872 133.985 24.552 133.985 23.848V19.896H132.897V18.664H133.985V16.072H135.937V18.664ZM137.073 14.936H139.089L137.937 17.848H136.769L137.073 14.936Z" fill="white"/>
<path d="M129.872 15.736H131.824V17.512H129.872V15.736ZM129.872 18.664H131.824V26.456H129.872V18.664Z" fill="white"/>
<path d="M120.685 18.664H122.637V19.688C123.229 18.808 123.869 18.456 124.861 18.456C126.829 18.456 128.253 20.2 128.253 22.6C128.253 24.984 126.877 26.664 124.909 26.664C123.949 26.664 123.357 26.328 122.637 25.384V29.064H120.685V18.664ZM124.477 20.008C123.293 20.008 122.541 21 122.541 22.584C122.541 24.088 123.309 25.112 124.429 25.112C125.517 25.112 126.253 24.104 126.253 22.6C126.253 21.064 125.533 20.008 124.477 20.008Z" fill="white"/>
<path d="M118.674 18.6639V26.4559H116.722V25.6559C115.954 26.3599 115.282 26.6639 114.418 26.6639C113.218 26.6639 112.274 25.9439 111.938 24.8079C111.826 24.4079 111.794 24.0239 111.794 23.0159V18.6639H113.746V22.9039C113.746 23.6879 113.762 23.8319 113.858 24.1199C114.034 24.6479 114.498 24.9519 115.122 24.9519C115.618 24.9519 116.098 24.7279 116.37 24.3759C116.626 24.0559 116.722 23.6879 116.722 23.0159V18.6639H118.674ZM115.138 15.5439H117.266L115.682 17.4959H114.402L115.138 15.5439Z" fill="white"/>
<path d="M105.183 23.928V26.456H103.231V15.784H105.183V21.784L108.015 18.664H110.351L107.535 21.608L110.783 26.456H108.303L106.175 22.904L105.183 23.928Z" fill="white"/>
<path d="M96.3539 20.984H94.5299C94.6259 20.232 94.7859 19.832 95.0899 19.464C95.6499 18.808 96.6259 18.456 97.9059 18.456C99.5059 18.456 100.578 18.936 101.01 19.848C101.218 20.248 101.298 20.76 101.298 21.544V24.808C101.298 25.736 101.33 25.976 101.554 26.456H99.6659L99.4419 25.736C98.6099 26.376 97.8419 26.664 96.9459 26.664C95.3619 26.664 94.0659 25.592 94.0659 24.28C94.0659 23.416 94.5779 22.68 95.5219 22.232C96.0979 21.944 96.8979 21.752 98.0979 21.608C98.9939 21.512 99.3139 21.304 99.3139 20.824C99.3139 20.232 98.7379 19.816 97.8899 19.816C96.9779 19.816 96.4179 20.232 96.3539 20.984ZM99.3939 23.432V22.36C99.0259 22.6 98.8339 22.664 98.1619 22.824C96.5619 23.208 96.0659 23.528 96.0659 24.168C96.0659 24.728 96.6099 25.112 97.4259 25.112C98.0019 25.112 98.5299 24.952 98.9139 24.648C99.2659 24.376 99.3939 24.056 99.3939 23.432Z" fill="white"/>
<path d="M85.4971 18.664H87.4491V19.752C88.1691 18.808 88.7931 18.456 89.7371 18.456C90.7451 18.456 91.6891 19 92.1211 19.832C92.3451 20.232 92.4411 20.76 92.4411 21.448V26.456H90.4891V21.96C90.4891 21.336 90.4411 21.064 90.2811 20.808C90.0251 20.392 89.6091 20.168 89.0811 20.168C88.0411 20.168 87.4491 20.872 87.4491 22.104V26.456H85.4971V18.664Z" fill="white"/>
<path d="M77.6401 18.664H79.1121V19.896H77.6401V23.848C77.6401 24.44 77.6721 24.616 77.8001 24.776C77.9281 24.952 78.2001 25.048 78.5201 25.048L79.0641 25.032L79.2241 25.016V26.456H77.8321C77.1121 26.456 76.9681 26.44 76.6961 26.328C76.1681 26.12 75.8801 25.752 75.7681 25.176C75.7041 24.872 75.6881 24.552 75.6881 23.848V19.896H74.6001V18.664H75.6881V16.072H77.6401V18.664ZM78.7761 14.936H80.7921L79.6401 17.848H78.4721L78.7761 14.936Z" fill="white"/>
<path d="M73.8266 20.984H72.1146C71.9226 20.248 71.4266 19.896 70.5626 19.896C69.7306 19.896 69.1546 20.264 69.1546 20.792C69.1546 21.032 69.3146 21.24 69.5706 21.352C69.8586 21.48 70.2106 21.56 71.2986 21.752C72.4186 21.944 72.8986 22.104 73.3306 22.44C73.7946 22.824 74.0666 23.416 74.0666 24.12C74.0666 25.64 72.7386 26.664 70.7546 26.664C68.6586 26.664 67.3786 25.688 67.2026 23.96H68.9946C69.1546 24.824 69.7146 25.224 70.7386 25.224C71.6346 25.224 72.2266 24.84 72.2266 24.248C72.2266 23.768 71.9386 23.592 70.8986 23.416C69.6666 23.192 68.8186 22.936 68.3226 22.616C67.6986 22.216 67.3786 21.64 67.3786 20.968C67.3786 19.496 68.6746 18.456 70.4986 18.456C72.4026 18.456 73.6666 19.416 73.8266 20.984Z" fill="white"/>
<path d="M62.1139 18.456C64.4499 18.456 66.1459 20.184 66.1459 22.552C66.1459 24.968 64.4499 26.664 62.0499 26.664C59.7619 26.664 58.0659 24.92 58.0659 22.552C58.0659 20.184 59.7619 18.456 62.1139 18.456ZM62.1139 20.008C60.8979 20.008 60.0659 21.032 60.0659 22.52C60.0659 24.088 60.8659 25.112 62.1139 25.112C63.3299 25.112 64.1459 24.088 64.1459 22.552C64.1459 21.032 63.3299 20.008 62.1139 20.008Z" fill="white"/>
<path d="M49.4971 18.664H51.4491V19.752C52.1691 18.808 52.7931 18.456 53.7371 18.456C54.7451 18.456 55.6891 19 56.1211 19.832C56.3451 20.232 56.4411 20.76 56.4411 21.448V26.456H54.4891V21.96C54.4891 21.336 54.4411 21.064 54.2811 20.808C54.0251 20.392 53.6091 20.168 53.0811 20.168C52.0411 20.168 51.4491 20.872 51.4491 22.104V26.456H49.4971V18.664Z" fill="white"/>
<path d="M41.8037 18.6639H47.7877V20.2959L43.6117 24.9679H48.0277V26.4559H41.3877V24.9199L45.5797 20.1519H41.8037V18.6639ZM43.5637 17.4959L42.3157 15.5439H43.9637L44.7797 16.8559L45.6117 15.5439H47.2597L46.0597 17.4959H43.5637Z" fill="white"/>
<path d="M36.4889 18.456C38.8249 18.456 40.5209 20.184 40.5209 22.552C40.5209 24.968 38.8249 26.664 36.4249 26.664C34.1369 26.664 32.4409 24.92 32.4409 22.552C32.4409 20.184 34.1369 18.456 36.4889 18.456ZM36.4889 20.008C35.2729 20.008 34.4409 21.032 34.4409 22.52C34.4409 24.088 35.2409 25.112 36.4889 25.112C37.7049 25.112 38.5209 24.088 38.5209 22.552C38.5209 21.032 37.7049 20.008 36.4889 20.008Z" fill="white"/>
<path d="M26.416 26.456H24.304L21.92 18.344V26.456H20V15.784H23.056L25.344 23.704L27.648 15.784H30.704V26.456H28.784V18.344L26.416 26.456Z" fill="white"/>
<path fill-rule="evenodd" clip-rule="evenodd" d="M179.99 12L168.502 31.9998H164.782L176.278 12H179.99ZM171.609 18.429L163.81 31.9995H160.098L167.897 18.429H171.609ZM173.193 32L182.868 15.1689H179.156L169.481 32H173.193ZM241.014 27.8065L241.048 27.7989V28.6683C240.774 28.7293 240.621 28.7599 240.408 28.7599C239.92 28.7599 239.477 28.531 239.355 28.1955C239.294 28.0582 239.264 27.9361 239.248 27.5396C238.654 28.3938 237.784 28.8209 236.625 28.8209C235.115 28.8209 234.154 28.0429 234.154 26.8074C234.154 26.0294 234.505 25.4193 235.176 25.0227C235.694 24.7023 235.923 24.6413 238.074 24.2752C238.821 24.1532 239.065 23.9397 239.065 23.421C239.065 22.5363 238.577 22.1245 237.54 22.1245C236.701 22.1245 236.03 22.399 235.832 22.8414C235.74 23.0397 235.71 23.2227 235.694 23.6498H234.566C234.596 22.9329 234.688 22.5668 234.962 22.1702C235.42 21.5143 236.35 21.1482 237.54 21.1482C238.593 21.1482 239.462 21.4533 239.859 21.9719C240.133 22.3075 240.225 22.6889 240.225 23.4058V26.8379C240.225 27.6311 240.347 27.8446 240.774 27.8446C240.843 27.8446 240.9 27.8319 241.014 27.8065ZM236.838 27.8599C238.135 27.8599 239.035 27.1124 239.035 26.0294V24.7786C238.638 24.9617 238.425 25.0227 237.677 25.16C236.472 25.404 236.045 25.5566 235.694 25.8616C235.481 26.0447 235.344 26.365 235.344 26.6853C235.344 27.4023 235.923 27.8599 236.838 27.8599ZM236.838 20.0347L237.464 18.25H238.867L237.571 20.0347H236.838ZM191.378 18.4483H192.766L198.09 26.6396V18.4483H199.386V28.6226H198.014L192.675 20.3855V28.6226H191.378V18.4483ZM208.454 27.8065L208.488 27.7989V28.6683C208.214 28.7293 208.061 28.7599 207.848 28.7599C207.359 28.7599 206.917 28.531 206.795 28.1955C206.734 28.0582 206.703 27.9361 206.688 27.5396C206.093 28.3938 205.224 28.8209 204.065 28.8209C202.554 28.8209 201.593 28.0429 201.593 26.8074C201.593 26.0294 201.944 25.4193 202.615 25.0227C203.134 24.7023 203.363 24.6413 205.514 24.2752C206.261 24.1532 206.505 23.9397 206.505 23.421C206.505 22.5363 206.017 22.1245 204.98 22.1245C204.141 22.1245 203.47 22.399 203.271 22.8414C203.18 23.0397 203.149 23.2227 203.134 23.6498H202.005C202.036 22.9329 202.127 22.5668 202.402 22.1702C202.86 21.5143 203.79 21.1482 204.98 21.1482C206.032 21.1482 206.902 21.4533 207.298 21.9719C207.573 22.3075 207.664 22.6889 207.664 23.4058V26.8379C207.664 27.6311 207.786 27.8446 208.214 27.8446C208.283 27.8446 208.34 27.8319 208.454 27.8065ZM204.278 27.8599C205.575 27.8599 206.475 27.1124 206.475 26.0294V24.7786C206.078 24.9617 205.865 25.0227 205.117 25.16C203.912 25.404 203.485 25.5566 203.134 25.8616C202.921 26.0447 202.783 26.365 202.783 26.6853C202.783 27.4023 203.363 27.8599 204.278 27.8599ZM220.071 23.5278C219.842 21.9109 218.942 21.1482 217.234 21.1482C215.449 21.1482 214.305 21.9567 214.305 23.238C214.305 23.7719 214.534 24.2752 214.915 24.5498C215.251 24.8091 215.831 25.0227 216.715 25.2362C218.302 25.6176 218.469 25.6786 218.775 25.8769C219.019 26.0447 219.156 26.3192 219.156 26.6243C219.156 27.3718 218.439 27.8599 217.325 27.8599C215.953 27.8599 215.236 27.265 215.175 26.121H213.985C214.107 27.8751 215.281 28.8209 217.31 28.8209C219.202 28.8209 220.346 27.9667 220.346 26.5481C220.346 25.3735 219.598 24.7481 217.646 24.3058C216.548 24.0617 216.166 23.9549 215.907 23.7871C215.648 23.6498 215.495 23.3905 215.495 23.1312C215.495 22.5211 216.151 22.1245 217.142 22.1245C217.753 22.1245 218.256 22.2923 218.546 22.5973C218.775 22.8414 218.851 23.0397 218.881 23.5278H220.071ZM223.5 27.5853V31.0174H222.311V21.3465H223.5V22.3228C224.141 21.5143 224.889 21.1482 225.895 21.1482C227.741 21.1482 228.977 22.6889 228.977 25.0227C228.977 27.3107 227.741 28.8209 225.865 28.8209C224.873 28.8209 224.141 28.4395 223.5 27.5853ZM227.787 24.9769C227.787 23.1617 227.039 22.1092 225.728 22.1092C224.995 22.1092 224.355 22.4295 223.943 23.0244C223.623 23.482 223.47 24.0617 223.47 24.8854C223.47 25.8921 223.638 26.5328 224.05 27.0514C224.446 27.5701 225.041 27.8599 225.697 27.8599C227.009 27.8599 227.787 26.7769 227.787 24.9769ZM232.274 18.4483H231.069V28.6226H232.274V18.4483ZM244.074 21.3465V18.9974H242.884V21.3465H241.816V22.3075H242.884V27.0972C242.884 27.7073 242.96 28.0277 243.159 28.287C243.403 28.5768 243.937 28.7751 244.547 28.7751C244.791 28.7751 244.974 28.7446 245.31 28.6683V27.6768C245.066 27.7531 244.959 27.7684 244.806 27.7684C244.227 27.7684 244.074 27.5548 244.074 26.7464V22.3075H245.523V21.3465H244.074ZM247.245 18.4483H248.434V24.4125L251.729 21.3465H253.27L250.524 23.9092L253.789 28.6226H252.324L249.639 24.6108L248.434 25.7244V28.6226H247.245V18.4483ZM255.292 21.3465H253.996L257.031 28.3785L256.619 29.3853C256.391 29.9496 256.147 30.1327 255.643 30.1327C255.292 30.1327 255.048 30.0717 254.743 29.8886V30.9716C255.186 31.1394 255.445 31.1852 255.826 31.1852C256.833 31.1852 257.321 30.7886 257.824 29.5073L261.043 21.3465H259.777L257.626 27.2192L255.292 21.3465ZM264.381 19.3815H266.568V18.6542H261.279V19.3815H263.507V25.1218H264.381V19.3815ZM267.238 25.1218H270.218C270.859 25.1218 271.337 25.0539 271.611 24.9085C272.211 24.6079 272.598 23.9776 272.598 23.2989C272.598 22.8237 272.415 22.3971 272.079 22.1062C271.855 21.9123 271.642 21.8153 271.184 21.6892C271.937 21.4565 272.323 20.9717 272.323 20.2832C272.323 19.6142 271.937 19.0615 271.306 18.8191C270.96 18.693 270.665 18.6542 270.004 18.6542H267.238V25.1218ZM268.102 21.4371V19.3815H270.025C270.574 19.3815 270.757 19.4105 270.991 19.5172C271.265 19.653 271.459 19.9826 271.459 20.3317C271.459 20.7584 271.194 21.1268 270.777 21.3111C270.594 21.3886 270.228 21.4371 269.862 21.4371H268.102ZM268.102 24.3946V22.1353H270.004C270.584 22.1353 270.889 22.1741 271.123 22.2904C271.51 22.4747 271.733 22.8431 271.733 23.2989C271.733 23.7352 271.52 24.094 271.154 24.2685C270.92 24.3752 270.726 24.3946 270.065 24.3946H268.102Z" fill="white"/>
</g>
<defs>
<clipPath id="clip0_1016_5600">
<rect width="292.598" height="44" fill="white"/>
</clipPath>
</defs>
</svg>
