<svg width="91" height="20" viewBox="0 0 91 20" fill="none" xmlns="http://www.w3.org/2000/svg">
<g clip-path="url(#clip0_2221_92)">
<path d="M82.0806 11.489H85.5536V7.67065H87.1649V11.489H90.638V13.1138H87.1649V16.9186H85.5536V13.1138H82.0806V11.489Z" fill="#08080A"/>
<path d="M79.1018 7.46087H81.5594L78.0728 17.6837C77.6801 18.8143 77.2468 19.4575 76.5969 19.8095C76.0485 20.1006 75.7912 20.1413 74.532 20.1413H73.3134V18.2863H74.0243C74.5726 18.2863 74.8908 18.2253 75.1278 18.0493C75.4595 17.8327 75.6762 17.3858 75.6762 16.9187C75.6762 16.5667 75.4595 15.7069 75.2226 15.0637L72.2505 7.4541H74.8705L77.0776 14.4544L79.1018 7.4541V7.46087Z" fill="#08080A"/>
<path d="M65.8934 10.284H63.6525C63.7676 9.37004 63.9707 8.8826 64.343 8.429C65.0336 7.63013 66.2319 7.20361 67.8093 7.20361C69.7794 7.20361 71.0928 7.78584 71.6277 8.90291C71.8849 9.39035 71.9797 10.0132 71.9797 10.9678V14.9486C71.9797 16.0792 72.0203 16.3703 72.2979 16.9593H69.9758L69.6982 16.0792C68.6759 16.8578 67.7281 17.2098 66.6313 17.2098C64.6815 17.2098 63.0906 15.9032 63.0906 14.3054C63.0906 13.2493 63.7202 12.3557 64.8846 11.8073C65.5955 11.4552 66.5772 11.2251 68.0531 11.049C69.1566 10.9339 69.5493 10.6767 69.5493 10.0944C69.5493 9.37004 68.8384 8.86229 67.7958 8.86229C66.672 8.86229 65.9882 9.37004 65.9069 10.284H65.8934ZM69.6305 13.2696V11.963C69.1769 12.2541 68.9399 12.3353 68.114 12.5317C66.1439 12.9988 65.5346 13.3915 65.5346 14.17C65.5346 14.8538 66.2048 15.321 67.2068 15.321C67.9177 15.321 68.5676 15.1246 69.0347 14.7523C69.468 14.4205 69.6237 14.0279 69.6237 13.2696H69.6305Z" fill="#08080A"/>
<path d="M53.037 7.46088H55.4404V8.70657C56.1716 7.6369 56.9569 7.20361 58.1755 7.20361C60.5992 7.20361 62.3459 9.32942 62.3459 12.2541C62.3459 15.1788 60.6534 17.2098 58.2297 17.2098C57.0517 17.2098 56.3205 16.8036 55.4337 15.6527V20.1413H53.0303V7.46088H53.037ZM57.7016 9.09924C56.2461 9.09924 55.3186 10.3111 55.3186 12.2406C55.3186 14.17 56.2664 15.321 57.6407 15.321C59.015 15.321 59.8816 14.0888 59.8816 12.2609C59.8816 10.433 58.9947 9.09924 57.6949 9.09924H57.7016Z" fill="#08080A"/>
<path d="M51.622 16.1604V16.9593C51.209 17.0947 51.0127 17.1353 50.7351 17.1353C49.8076 17.1353 49.4556 16.763 49.3608 15.673C48.2979 16.8239 47.411 17.2166 45.9351 17.2166C44.0259 17.2166 42.9021 16.2214 42.9021 14.5424C42.9021 13.7638 43.1391 13.1004 43.613 12.6332C44.141 12.0848 44.6759 11.875 45.996 11.6786L48.3385 11.3266C49.3405 11.1912 49.4014 11.1303 49.4014 10.1757C49.4014 8.88935 48.6702 8.34097 46.998 8.34097C45.3258 8.34097 44.6962 8.9232 44.5743 10.3923H43.2948C43.4302 8.42222 44.7097 7.35254 46.9777 7.35254C48.4739 7.35254 49.6316 7.79937 50.1664 8.5847C50.4846 9.05183 50.5388 9.42419 50.5388 10.6496V15.3277C50.5388 16.0318 50.6742 16.2417 51.1075 16.2417C51.2429 16.2417 51.3647 16.2214 51.622 16.1604ZM49.3608 12.1187L46.1314 12.6061C44.6759 12.8431 44.0869 13.3644 44.0869 14.4815C44.0869 15.5985 44.8519 16.2146 46.1111 16.2146C47.2553 16.2146 48.2572 15.7678 48.8666 14.9689C49.2389 14.5018 49.3608 13.9534 49.3608 12.8634V12.1255V12.1187Z" fill="#08080A"/>
<path d="M38.3865 16.9591V7.59608H39.5645V9.1532C40.2956 7.88719 40.9997 7.43359 42.2048 7.43359C42.3605 7.43359 42.4824 7.4539 42.6787 7.49452V8.62513C42.5027 8.60482 42.347 8.58451 42.2657 8.58451C41.2841 8.58451 40.3566 9.26829 39.903 10.3177C39.6457 10.8999 39.5712 11.4076 39.5712 12.5586V16.9456H38.3932L38.3865 16.9591Z" fill="#08080A"/>
<path d="M37.0325 15.9843V16.7425C36.6196 16.9389 36.2878 17.0133 35.8342 17.0133C35.1031 17.0133 34.5953 16.7019 34.4396 16.1332C34.3583 15.8963 34.3583 15.8015 34.3583 14.8875V8.57101H32.9976V7.59612H34.3583V4.82715H35.5363V7.59612H37.0325V8.57101H35.5363V15.1651C35.5363 15.6525 35.5567 15.7473 35.6379 15.8895C35.753 16.0655 36.0103 16.1806 36.2878 16.1806C36.5045 16.1806 36.7008 16.1197 37.0325 15.9843Z" fill="#08080A"/>
<path d="M33.038 16.1604V16.9593C32.625 17.0947 32.4287 17.1353 32.1511 17.1353C31.2236 17.1353 30.8716 16.763 30.7768 15.673C29.7139 16.8239 28.827 17.2166 27.3511 17.2166C25.442 17.2166 24.3181 16.2214 24.3181 14.5424C24.3181 13.7638 24.5551 13.1004 25.029 12.6332C25.557 12.0848 26.0919 11.875 27.4121 11.6786L29.7545 11.3266C30.7565 11.1912 30.8174 11.1303 30.8174 10.1757C30.8174 8.88935 30.0862 8.34097 28.414 8.34097C26.7418 8.34097 26.1122 8.9232 25.9903 10.3923H24.7108C24.8462 8.42222 26.1257 7.35254 28.3937 7.35254C29.8899 7.35254 31.0476 7.79937 31.5824 8.5847C31.9006 9.05183 31.9548 9.42419 31.9548 10.6496V15.3277C31.9548 16.0318 32.0902 16.2417 32.5235 16.2417C32.6589 16.2417 32.7807 16.2214 33.038 16.1604ZM30.7768 12.1187L27.5475 12.6061C26.0919 12.8431 25.5029 13.3644 25.5029 14.4815C25.5029 15.5985 26.2679 16.2146 27.5271 16.2146C28.6713 16.2146 29.6733 15.7678 30.2826 14.9689C30.6549 14.5018 30.7768 13.9534 30.7768 12.8634V12.1255V12.1187Z" fill="#08080A"/>
<path d="M23.5736 15.9843V16.7425C23.1606 16.9389 22.8288 17.0133 22.3752 17.0133C21.6441 17.0133 21.1363 16.7019 20.9806 16.1332C20.8994 15.8963 20.8994 15.8015 20.8994 14.8875V8.57101H19.5386V7.59612H20.8994V4.82715H22.0774V7.59612H23.5736V8.57101H22.0774V15.1651C22.0774 15.6525 22.0977 15.7473 22.1789 15.8895C22.294 16.0655 22.5513 16.1806 22.8288 16.1806C23.0455 16.1806 23.2418 16.1197 23.5736 15.9843Z" fill="#08080A"/>
<path d="M2.71481 16.9593L8.422 7.02759H5.70719L0 16.9593H2.71481Z" fill="#08080A"/>
<path d="M6.14736 16.9592L14.5558 2.32227H11.841L3.42578 16.9592H6.14736Z" fill="#08080A"/>
<path d="M9.58657 16.9593L16.6613 4.6377H13.9465L6.86499 16.9525H9.5798L9.58657 16.9593Z" fill="#08080A"/>
</g>
</svg>
